<?xml version="1.0" encoding="iso-8859-1"?>
<!-- Uploaded to: SVG Repo, www.svgrepo.com, Generator: SVG Repo Mixer Tools -->
<svg height="800px" width="800px" version="1.1" id="Layer_1" xmlns="http://www.w3.org/2000/svg" xmlns:xlink="http://www.w3.org/1999/xlink" 
	 viewBox="0 0 512 512" xml:space="preserve">
<path style="fill:#3D6DEB;" d="M80.875,270.317l11.42-11.421l53.299-53.299l-68.528-68.528L4.731,209.404
	c-3.03,3.03-4.733,7.138-4.731,11.422c-0.001,4.285,1.702,8.393,4.73,11.422l45.686,45.684c3.154,3.154,7.287,4.732,11.421,4.732
	c2.381,0,4.757-0.542,6.952-1.588c1.614-0.77,3.132-1.807,4.47-3.143L80.875,270.317z"/>
<g>
	<polygon style="fill:#5286FA;" points="145.594,205.596 92.295,258.896 117.28,233.912 	"/>
	<polygon style="fill:#5286FA;" points="80.875,270.317 92.295,258.896 92.295,258.896 	"/>
	<polygon style="fill:#5286FA;" points="92.295,258.896 92.295,258.896 117.28,233.912 	"/>
</g>
<polygon style="fill:#719DF7;" points="145.594,205.596 151.886,199.306 149.402,201.789 "/>
<path style="fill:#ECB45C;" d="M438.739,285.546l-7.613-7.614l-47.971-47.97l-20.558-20.558l-19.036-19.036l-57.105-57.107
	c-3.029-3.028-4.732-7.137-4.732-11.422c0-4.281,1.699-8.386,4.726-11.416l-34.258,34.259l-34.258-34.259
	c3.026,3.029,4.726,7.135,4.727,11.416c-0.001,4.285-1.701,8.392-4.731,11.421l-66.045,66.045l54.624-54.623l-89.231,89.23
	l-24.984,24.984l-11.42,11.421l-7.615,7.614c-1.337,1.336-2.856,2.373-4.47,3.143l156.754,156.755c0,0-0.001,0,0,0
	c9.447,9.447,21.854,14.169,34.263,14.169c12.408,0,24.818-4.723,34.263-14.17c8.522-8.522,13.473-19.657,14.116-31.598
	c11.496-0.635,22.807-5.325,31.569-14.088c8.77-8.768,13.461-20.092,14.09-31.596c11.505-0.63,22.825-5.322,31.596-14.089
	c0.013-0.013,0.026-0.028,0.04-0.043l22.802-22.8l34.931-34.932C441.572,287.902,440.052,286.857,438.739,285.546z"/>
<path style="fill:#00E7F0;" d="M507.268,217.018l-76.142-76.142l-76.142-76.141c-6.307-6.307-16.533-6.308-22.842,0l-45.686,45.684
	c-0.001,0.001-0.003,0.003-0.005,0.005c-3.026,3.029-4.726,7.135-4.726,11.416c0,4.284,1.701,8.393,4.732,11.422l76.142,76.142
	l68.528,68.529l7.613,7.614c1.313,1.312,2.833,2.356,4.475,3.139c2.151,1.027,4.517,1.592,6.946,1.592
	c4.284,0,8.393-1.701,11.422-4.732l45.686-45.686c3.03-3.03,4.732-7.137,4.732-11.422
	C511.999,224.155,510.298,220.046,507.268,217.018z"/>
<path style="fill:#5286FA;" d="M217.936,110.424c-0.002-0.002-0.003-0.003-0.005-0.005l-45.688-45.685
	c-6.307-6.307-16.534-6.307-22.842,0l-72.335,72.335L4.731,209.404c-3.03,3.03-4.733,7.138-4.731,11.422
	c-0.001,4.285,1.702,8.393,4.73,11.422l45.686,45.684c3.154,3.154,7.287,4.732,11.421,4.732c2.381,0,4.757-0.542,6.952-1.588
	c1.614-0.77,3.132-1.807,4.47-3.143l7.615-7.614l11.42-11.421l53.299-53.299l3.808-3.808l68.529-68.528
	c3.03-3.029,4.731-7.137,4.731-11.421C222.661,117.559,220.961,113.452,217.936,110.424z"/>
<g>
	<path style="fill:#EFC27B;" d="M343.562,190.367l-45.685-45.685l-22.842,22.842l-11.422,11.421l-11.42,11.42l-32.46,32.461
		l-1.792,1.792c-0.004,0.004-0.009,0.008-0.011,0.011v0.001c-6.298,6.298-6.299,16.546-0.001,22.843
		c6.3,6.297,16.546,6.297,22.843-0.001l5.409-5.409l28.855-28.854l11.42-11.42c3.029-3.03,7.137-4.73,11.42-4.732
		c4.285,0,8.393,1.701,11.423,4.732l75.692,75.693l0.436,0.435l0.02,0.023l0.018,0.018l11.395,11.394l22.842-22.842l-36.548-36.548
		l-20.558-20.558L343.562,190.367z"/>
	<path style="fill:#EFC27B;" d="M294.071,369.302c0.002,0.002,0.004,0.004,0.005,0.004c0.001,0.001,0.001,0.001,0.001,0.001
		c6.299,6.291,16.542,6.289,22.836-0.005c6.298-6.298,6.299-16.546,0-22.842c-0.009-0.006-0.013-0.015-0.022-0.023l-22.821-22.821
		c-6.307-6.308-6.307-16.533,0-22.842c6.307-6.307,16.534-6.308,22.842-0.001l22.838,22.837c0.002,0.002,0.002,0.003,0.005,0.005
		c0.003,0.002,0.005,0.004,0.008,0.008c5.673,5.665,14.54,6.209,20.846,1.66l0.362,0.263c0.49-0.671,1.018-1.323,1.624-1.927
		c0.002-0.001,0.002-0.002,0.004-0.003l0.004-0.005l11.416-11.416l-1.552-1.553l-9.864-9.864c-0.002-0.002-0.002-0.003-0.004-0.004
		l-1.904-1.905l-5.718-5.717l-57.1-57.1l-25.246,25.247l-3.746,3.746l-5.271,5.271c0,0,0,0-0.001,0.001
		c-0.001,0.001-0.001,0.001-0.001,0.001c-9.446,9.445-21.854,14.168-34.262,14.169c-12.408,0-24.819-4.724-34.264-14.17
		c-18.89-18.894-18.89-49.634,0-68.528c0.002-0.002,0.004-0.003,0.005-0.005l34.259-34.26l-22.84-22.842l-89.231,89.23
		l-24.984,24.984l156.089,156.09l0.001,0.003c6.3,6.297,16.548,6.295,22.843-0.001c3.052-3.053,4.733-7.108,4.733-11.422
		c0-4.31-1.679-8.362-4.726-11.413c-0.001-0.003-0.004-0.004-0.006-0.006v-0.001c-0.004-0.003-0.006-0.006-0.011-0.011
		l-22.833-22.832c-6.309-6.308-6.308-16.535,0.001-22.843c6.305-6.307,16.533-6.308,22.842,0L294.071,369.302L294.071,369.302"/>
	<polygon style="fill:#EFC27B;" points="268.886,265.046 263.615,270.317 263.615,270.317 	"/>
</g>
<polygon style="fill:#719DF7;" points="151.886,199.306 217.931,133.262 149.402,201.789 "/>
<path style="fill:#00D7DF;" d="M286.456,133.259l76.142,76.142l68.528-68.527l-76.142-76.141c-6.307-6.307-16.533-6.308-22.842,0
	l-45.686,45.684c-0.001,0.001-0.003,0.003-0.005,0.005c-3.026,3.029-4.726,7.134-4.726,11.416
	C281.725,126.122,283.427,130.231,286.456,133.259z"/>
<g>
	<polygon style="fill:#5286FA;" points="343.562,190.367 362.597,209.403 362.598,209.403 286.456,133.259 	"/>
	<polygon style="fill:#5286FA;" points="362.597,209.403 343.562,190.367 362.597,209.404 	"/>
</g>
<g>
	<polygon style="fill:#719DF7;" points="383.156,229.961 431.126,277.931 362.598,209.403 362.597,209.403 	"/>
	<polygon style="fill:#719DF7;" points="362.597,209.404 383.156,229.961 362.597,209.403 	"/>
</g>
</svg>